<mxfile host="app.diagrams.net" modified="2024-01-30T01:22:43.445Z" agent="Mozilla/5.0 (Macintosh; Intel Mac OS X 10_15_7) AppleWebKit/537.36 (KHTML, like Gecko) Chrome/117.0.0.0 Safari/537.36" etag="yG3QixTnq9Cy28Yi7FBQ" version="23.0.0" type="device">
  <diagram name="Page-1" id="QisHiejCSZuoOIiGsyw2">
    <mxGraphModel dx="1080" dy="686" grid="1" gridSize="10" guides="1" tooltips="1" connect="1" arrows="1" fold="1" page="1" pageScale="1" pageWidth="1200" pageHeight="1600" math="0" shadow="0">
      <root>
        <mxCell id="0" />
        <mxCell id="1" parent="0" />
        <mxCell id="VzGRynJD9-0rlZAM3sxt-15" style="edgeStyle=orthogonalEdgeStyle;rounded=0;orthogonalLoop=1;jettySize=auto;html=1;exitX=1;exitY=0.5;exitDx=0;exitDy=0;" edge="1" parent="1" source="VzGRynJD9-0rlZAM3sxt-1" target="VzGRynJD9-0rlZAM3sxt-4">
          <mxGeometry relative="1" as="geometry" />
        </mxCell>
        <mxCell id="VzGRynJD9-0rlZAM3sxt-1" value="Application / Wallet" style="whiteSpace=wrap;html=1;aspect=fixed;" vertex="1" parent="1">
          <mxGeometry x="20" y="260" width="110" height="110" as="geometry" />
        </mxCell>
        <mxCell id="VzGRynJD9-0rlZAM3sxt-2" value="Cadence" style="ellipse;shape=cloud;whiteSpace=wrap;html=1;" vertex="1" parent="1">
          <mxGeometry x="560" y="220" width="220" height="190" as="geometry" />
        </mxCell>
        <mxCell id="VzGRynJD9-0rlZAM3sxt-3" value="FlowEVM" style="ellipse;shape=cloud;whiteSpace=wrap;html=1;" vertex="1" parent="1">
          <mxGeometry x="880" y="224.5" width="247.5" height="165" as="geometry" />
        </mxCell>
        <mxCell id="VzGRynJD9-0rlZAM3sxt-12" style="edgeStyle=orthogonalEdgeStyle;rounded=0;orthogonalLoop=1;jettySize=auto;html=1;exitX=1;exitY=0.5;exitDx=0;exitDy=0;entryX=0;entryY=0.5;entryDx=0;entryDy=0;" edge="1" parent="1" source="VzGRynJD9-0rlZAM3sxt-4" target="VzGRynJD9-0rlZAM3sxt-5">
          <mxGeometry relative="1" as="geometry" />
        </mxCell>
        <mxCell id="VzGRynJD9-0rlZAM3sxt-4" value="RPC" style="whiteSpace=wrap;html=1;aspect=fixed;" vertex="1" parent="1">
          <mxGeometry x="280" y="275" width="80" height="80" as="geometry" />
        </mxCell>
        <mxCell id="VzGRynJD9-0rlZAM3sxt-5" value="Wrapped EVM transaction in Cadence" style="shape=parallelogram;perimeter=parallelogramPerimeter;whiteSpace=wrap;html=1;fixedSize=1;" vertex="1" parent="1">
          <mxGeometry x="410" y="285" width="120" height="60" as="geometry" />
        </mxCell>
        <mxCell id="VzGRynJD9-0rlZAM3sxt-6" value="" style="endArrow=classic;html=1;rounded=0;entryX=0.16;entryY=0.55;entryDx=0;entryDy=0;entryPerimeter=0;exitX=0.875;exitY=0.5;exitDx=0;exitDy=0;exitPerimeter=0;strokeWidth=1;" edge="1" parent="1" source="VzGRynJD9-0rlZAM3sxt-2" target="VzGRynJD9-0rlZAM3sxt-3">
          <mxGeometry width="50" height="50" relative="1" as="geometry">
            <mxPoint x="550" y="340" as="sourcePoint" />
            <mxPoint x="600" y="290" as="targetPoint" />
          </mxGeometry>
        </mxCell>
        <mxCell id="VzGRynJD9-0rlZAM3sxt-7" value="Proxy Transaction" style="text;html=1;strokeColor=none;fillColor=none;align=center;verticalAlign=middle;whiteSpace=wrap;rounded=0;" vertex="1" parent="1">
          <mxGeometry x="760" y="290" width="140" height="30" as="geometry" />
        </mxCell>
        <mxCell id="VzGRynJD9-0rlZAM3sxt-9" style="edgeStyle=orthogonalEdgeStyle;rounded=0;orthogonalLoop=1;jettySize=auto;html=1;exitX=1;exitY=0.5;exitDx=0;exitDy=0;entryX=0.105;entryY=0.499;entryDx=0;entryDy=0;entryPerimeter=0;" edge="1" parent="1" source="VzGRynJD9-0rlZAM3sxt-5" target="VzGRynJD9-0rlZAM3sxt-2">
          <mxGeometry relative="1" as="geometry" />
        </mxCell>
        <mxCell id="VzGRynJD9-0rlZAM3sxt-13" value="RPC sets the payer of the wrapping Cadence transaction to it&#39;s Cadence account" style="text;html=1;strokeColor=none;fillColor=none;align=center;verticalAlign=middle;whiteSpace=wrap;rounded=0;" vertex="1" parent="1">
          <mxGeometry x="395" y="362.5" width="150" height="30" as="geometry" />
        </mxCell>
        <mxCell id="VzGRynJD9-0rlZAM3sxt-16" value="Submit EVM Transaction" style="text;html=1;align=center;verticalAlign=middle;resizable=0;points=[];autosize=1;strokeColor=none;fillColor=none;" vertex="1" parent="1">
          <mxGeometry x="120" y="292" width="160" height="30" as="geometry" />
        </mxCell>
        <mxCell id="VzGRynJD9-0rlZAM3sxt-17" value="RPC sets the EVM transaction&#39;s coinbase to it&#39;s EVM account" style="text;html=1;strokeColor=none;fillColor=none;align=center;verticalAlign=middle;whiteSpace=wrap;rounded=0;" vertex="1" parent="1">
          <mxGeometry x="250" y="370" width="140" height="30" as="geometry" />
        </mxCell>
      </root>
    </mxGraphModel>
  </diagram>
</mxfile>
